<svg width="12" height="18" viewBox="0 0 12 18" fill="none" xmlns="http://www.w3.org/2000/svg">
<path d="M10.2902 11.2899L6.00019 15.5899L1.71019 11.2899C1.52188 11.1016 1.26649 10.9958 1.00019 10.9958C0.733884 10.9958 0.478489 11.1016 0.290185 11.2899C0.101882 11.4782 -0.00390625 11.7336 -0.00390625 11.9999C-0.00390625 12.2662 0.101882 12.5216 0.290185 12.7099L5.29019 17.7099C5.38315 17.8037 5.49375 17.8781 5.61561 17.9288C5.73747 17.9796 5.86817 18.0057 6.00019 18.0057C6.1322 18.0057 6.2629 17.9796 6.38476 17.9288C6.50662 17.8781 6.61722 17.8037 6.71019 17.7099L11.7102 12.7099C11.8034 12.6167 11.8774 12.506 11.9278 12.3842C11.9783 12.2624 12.0043 12.1318 12.0043 11.9999C12.0043 11.8681 11.9783 11.7375 11.9278 11.6157C11.8774 11.4939 11.8034 11.3832 11.7102 11.2899C11.6169 11.1967 11.5063 11.1227 11.3844 11.0723C11.2626 11.0218 11.132 10.9958 11.0002 10.9958C10.8683 10.9958 10.7378 11.0218 10.6159 11.0723C10.4941 11.1227 10.3834 11.1967 10.2902 11.2899ZM1.71019 6.70994L6.00019 2.40994L10.2902 6.70994C10.3831 6.80367 10.4937 6.87806 10.6156 6.92883C10.7375 6.9796 10.8682 7.00574 11.0002 7.00574C11.1322 7.00574 11.2629 6.9796 11.3848 6.92883C11.5066 6.87806 11.6172 6.80367 11.7102 6.70994C11.8039 6.61698 11.8783 6.50637 11.9291 6.38452C11.9798 6.26266 12.006 6.13195 12.006 5.99994C12.006 5.86793 11.9798 5.73722 11.9291 5.61536C11.8783 5.4935 11.8039 5.3829 11.7102 5.28994L6.71019 0.289939C6.61722 0.196211 6.50662 0.121816 6.38476 0.0710475C6.2629 0.0202789 6.1322 -0.00585938 6.00019 -0.00585938C5.86817 -0.00585938 5.73747 0.0202789 5.61561 0.0710475C5.49375 0.121816 5.38315 0.196211 5.29019 0.289939L0.290185 5.28994C0.196947 5.38318 0.122986 5.49387 0.072526 5.61569C0.0220657 5.73751 -0.00390625 5.86808 -0.00390625 5.99994C-0.00390625 6.26624 0.101882 6.52164 0.290185 6.70994C0.478489 6.89824 0.733884 7.00403 1.00019 7.00403C1.26649 7.00403 1.52188 6.89824 1.71019 6.70994Z" fill="white"/>
</svg>
