<svg width="17" height="16" viewBox="0 0 17 16" fill="none" xmlns="http://www.w3.org/2000/svg">
<path d="M8.50065 8.50016C10.614 8.50016 12.334 6.78016 12.334 4.66683C12.334 2.5535 10.614 0.833496 8.50065 0.833496C6.38732 0.833496 4.66732 2.5535 4.66732 4.66683C4.66732 6.78016 6.38732 8.50016 8.50065 8.50016ZM8.50065 1.8335C10.0607 1.8335 11.334 3.10683 11.334 4.66683C11.334 6.22683 10.0607 7.50016 8.50065 7.50016C6.94065 7.50016 5.66732 6.22683 5.66732 4.66683C5.66732 3.10683 6.94065 1.8335 8.50065 1.8335Z" fill="white"/>
<path d="M2.77323 15.1667C3.04657 15.1667 3.27323 14.94 3.27323 14.6667C3.27323 12.3667 5.6199 10.5 8.4999 10.5C11.3799 10.5 13.7266 12.3667 13.7266 14.6667C13.7266 14.94 13.9532 15.1667 14.2266 15.1667C14.4999 15.1667 14.7266 14.94 14.7266 14.6667C14.7266 11.82 11.9332 9.5 8.4999 9.5C5.06657 9.5 2.27323 11.82 2.27323 14.6667C2.27323 14.94 2.4999 15.1667 2.77323 15.1667Z" fill="white"/>
</svg>
