<svg width="14" height="14" viewBox="0 0 14 14" fill="none" xmlns="http://www.w3.org/2000/svg">
<path d="M7.18809 12.7815C4.27582 12.7815 1.9082 10.4139 1.9082 7.50163C1.9082 4.58935 4.27582 2.22174 7.18809 2.22174C10.1004 2.22174 12.468 4.58935 12.468 7.50163C12.468 10.4139 10.1004 12.7815 7.18809 12.7815ZM7.18809 3.05541C4.73711 3.05541 2.74187 5.05065 2.74187 7.50163C2.74187 9.95261 4.73711 11.9478 7.18809 11.9478C9.63907 11.9478 11.6343 9.95261 11.6343 7.50163C11.6343 5.05065 9.63907 3.05541 7.18809 3.05541Z" fill="#868686"/>
<path d="M7.18832 7.77949C6.96045 7.77949 6.77148 7.59052 6.77148 7.36265V4.58376C6.77148 4.3559 6.96045 4.16693 7.18832 4.16693C7.41619 4.16693 7.60515 4.3559 7.60515 4.58376V7.36265C7.60515 7.59052 7.41619 7.77949 7.18832 7.77949Z" fill="#868686"/>
<path d="M8.85697 1.66594H5.5223C5.29443 1.66594 5.10547 1.47698 5.10547 1.24911C5.10547 1.02124 5.29443 0.832275 5.5223 0.832275H8.85697C9.08484 0.832275 9.2738 1.02124 9.2738 1.24911C9.2738 1.47698 9.08484 1.66594 8.85697 1.66594Z" fill="#868686"/>
</svg>
