<svg width="152" height="159" viewBox="0 0 152 159" fill="none" xmlns="http://www.w3.org/2000/svg">
<rect width="152" height="159" fill="white"/>
<path d="M113.989 13.2504C108.52 14.5089 101.45 18.8336 93.0519 26.0413C87.9264 30.4576 74.5176 44.4384 74.5176 45.3537C74.5176 45.5138 74.6549 45.6511 74.8379 45.6511C75.021 45.6511 75.3184 45.7198 75.5015 45.7884C75.7303 45.8571 77.0803 44.5528 79.5745 41.8299C90.718 29.7024 100.283 21.5107 108.154 17.3234C112.891 14.8063 117.009 14.0284 119.435 15.1953C124.263 17.5293 124.057 27.1397 118.84 41.4409C116.78 47.1156 114.881 51.3487 110.854 59.3345L107.01 66.9771L107.376 67.6864C107.742 68.3728 107.765 68.3728 108.085 67.9381C109.252 66.3592 114.218 56.7946 116.483 51.7377C123.553 35.9721 126.07 24.0049 123.691 17.6437C123.073 15.9504 121.517 14.2801 120.007 13.6165C118.519 12.9529 115.934 12.8156 113.989 13.2504Z" fill="#04C3F9"/>
<path d="M53.4679 72.9722L50.5658 77.6515C50.4971 77.6515 50.4971 77.6515 50.5658 77.6515L47.8395 81.5461L42.7764 90.1144L31.936 113.153L31.4097 114.571C27.2223 125.738 25.9638 134.73 27.863 139.787C28.4808 141.458 30.0368 143.151 31.547 143.837C32.5767 144.295 33.103 144.387 35.0479 144.364C36.9929 144.364 37.6565 144.249 39.4413 143.631C50.6076 139.81 66.3961 125.898 82.894 105.259C86.8525 100.316 92.001 93.4057 92.2755 92.6735C92.3671 92.4218 92.184 92.376 91.5204 92.3989C90.6967 92.4675 90.5365 92.6048 88.7517 94.9617C75.2057 112.878 64.5198 124.479 53.2848 133.472C43.9948 140.886 36.1005 144.158 32.1191 142.236C27.3367 139.925 27.5198 130.291 32.5767 116.333L33.6979 113.267L40.1964 98.8745L42.3701 94.8244C45.688 88.5776 47.7245 85.1682 54.9094 73.7502C55.5272 72.7662 55.5501 72.6518 55.2069 72.3086C55.0009 72.1027 54.8408 71.8052 54.8408 71.6679C54.8179 71.5077 54.5204 71.7594 54.1543 72.1942L53.4679 72.9722Z" fill="#04C3F9"/>
<path d="M63.0293 107.996V48.8309H84.0752C88.6112 48.8309 92.4428 49.5071 95.5701 50.8595C98.6974 52.2118 101.064 54.2967 102.67 57.114C104.304 59.9314 105.121 63.5377 105.121 67.9328C105.121 72.3843 104.318 76.061 102.712 78.9629C101.106 81.8366 98.7538 83.9778 95.6546 85.3865C92.5555 86.767 88.7802 87.4573 84.3287 87.4573H73.8481V107.996H63.0293ZM73.8481 78.4135H83.0609C86.7517 78.4135 89.5127 77.5824 91.344 75.9201C93.2035 74.2579 94.1332 71.6518 94.1332 68.1019C94.1332 64.552 93.1894 61.96 91.3018 60.3259C89.4423 58.6918 86.6108 57.8747 82.8074 57.8747H73.8481V78.4135Z" fill="#04C3F9"/>
</svg>
