<svg width="7" height="6" viewBox="0 0 7 6" fill="none" xmlns="http://www.w3.org/2000/svg">
<path d="M4.66131 0.0949315C4.63137 0.0656271 4.59526 0.0421229 4.55513 0.0258209C4.51501 0.00951887 4.47169 0.000753025 4.42777 4.64186e-05C4.38385 -0.000660187 4.34023 0.00670684 4.2995 0.021708C4.25877 0.0367092 4.22177 0.0590373 4.19071 0.0873601C4.15965 0.115683 4.13516 0.14942 4.11871 0.18656C4.10226 0.223699 4.09418 0.26348 4.09495 0.303528C4.09573 0.343576 4.10534 0.383072 4.12322 0.419659C4.1411 0.456246 4.16687 0.489175 4.19901 0.516481L4.94916 1.2005H1.15913C1.07238 1.2005 0.989181 1.23193 0.927837 1.28786C0.866494 1.3438 0.832031 1.41967 0.832031 1.49877C0.832031 1.57788 0.866494 1.65374 0.927837 1.70968C0.989181 1.76561 1.07238 1.79704 1.15913 1.79704H4.94916L4.19901 2.48106C4.16687 2.50837 4.1411 2.54129 4.12322 2.57788C4.10534 2.61447 4.09573 2.65396 4.09495 2.69401C4.09418 2.73406 4.10226 2.77384 4.11871 2.81098C4.13516 2.84812 4.15965 2.88186 4.19071 2.91018C4.22177 2.9385 4.25877 2.96083 4.2995 2.97583C4.34023 2.99083 4.38385 2.9982 4.42777 2.99749C4.47169 2.99679 4.51501 2.98802 4.55513 2.97172C4.59526 2.95542 4.63137 2.93191 4.66131 2.90261L5.96973 1.70955C6.03098 1.65362 6.06539 1.57781 6.06539 1.49877C6.06539 1.41973 6.03098 1.34392 5.96973 1.288L4.66131 0.0949315ZM2.6987 3.10145C2.73084 3.07415 2.75661 3.04122 2.77449 3.00463C2.79237 2.96804 2.80198 2.92855 2.80276 2.8885C2.80353 2.84845 2.79545 2.80867 2.779 2.77153C2.76255 2.73439 2.73806 2.70066 2.707 2.67233C2.67594 2.64401 2.63894 2.62168 2.59821 2.60668C2.55748 2.59168 2.51385 2.58431 2.46993 2.58502C2.42601 2.58573 2.3827 2.59449 2.34258 2.61079C2.30245 2.6271 2.26634 2.6506 2.23639 2.6799L0.927981 3.87297C0.866726 3.92889 0.832319 4.0047 0.832319 4.08374C0.832319 4.16278 0.866726 4.23859 0.927981 4.29452L2.23639 5.48758C2.2984 5.54027 2.38041 5.56895 2.46516 5.56759C2.5499 5.56622 2.63075 5.53492 2.69068 5.48027C2.75061 5.42563 2.78494 5.3519 2.78644 5.27463C2.78793 5.19736 2.75648 5.12257 2.6987 5.06603L1.94854 4.38201H5.73857C5.82533 4.38201 5.90853 4.35058 5.96987 4.29465C6.03121 4.23871 6.06568 4.16285 6.06568 4.08374C6.06568 4.00464 6.03121 3.92877 5.96987 3.87284C5.90853 3.8169 5.82533 3.78548 5.73857 3.78548H1.94854L2.6987 3.10145Z" fill="#404040"/>
</svg>
