<svg width="22" height="26" viewBox="0 0 22 26" fill="none" xmlns="http://www.w3.org/2000/svg">
<path d="M11.0627 25.0927C16.9127 25.0927 21.6602 20.3339 21.6602 14.4952C21.6602 12.3914 21.0414 10.3552 19.8714 8.60017C19.6127 8.21767 19.0839 8.10517 18.7014 8.36392C18.3189 8.62267 18.2064 9.15142 18.4652 9.53392C19.4439 10.9964 19.9614 12.7177 19.9614 14.4839C19.9614 19.4002 15.9677 23.3939 11.0514 23.3939C6.13516 23.3939 2.14141 19.4002 2.14141 14.4839C2.14141 9.56767 6.14641 5.57392 11.0627 5.57392C12.0977 5.57392 13.1102 5.72017 14.0664 6.01267C14.5164 6.14767 14.9889 5.90017 15.1239 5.45017C15.2589 5.00017 15.0114 4.52767 14.5614 4.39267C13.4364 4.05517 12.2664 3.87517 11.0627 3.87517C5.21266 3.87517 0.465156 8.63392 0.465156 14.4727C0.465156 20.3114 5.21266 25.0927 11.0627 25.0927Z" fill="#404040"/>
<path d="M15.7089 6.32767C15.9002 6.32767 16.1027 6.26016 16.2602 6.12516C16.6202 5.81016 16.6539 5.28141 16.3502 4.93266L13.0989 1.19767C12.7952 0.848915 12.2552 0.803915 11.9064 1.11892C11.5577 1.42267 11.5239 1.96267 11.8277 2.31142L15.0789 6.03516C15.2477 6.22642 15.4839 6.32767 15.7089 6.32767Z" fill="#404040"/>
<path d="M11.9177 9.09516C12.0864 9.09516 12.2664 9.03892 12.4127 8.93767L16.2152 6.15892C16.5864 5.88892 16.6652 5.36017 16.3952 4.98892C16.1252 4.60642 15.5964 4.52767 15.2139 4.79767L11.4227 7.56517C11.0514 7.83517 10.9614 8.36392 11.2427 8.74642C11.4002 8.98267 11.6589 9.09516 11.9177 9.09516Z" fill="#404040"/>
<path d="M8.29775 18.6239C8.40267 18.6239 8.50758 18.5982 8.60443 18.5294L11.1062 16.9407C11.7276 16.5457 12.1877 15.6783 12.1877 14.914V11.393C12.1877 11.0409 11.9133 10.7489 11.5824 10.7489C11.2515 10.7489 10.9771 11.0409 10.9771 11.393V14.914C10.9771 15.2232 10.735 15.6783 10.4848 15.8329L7.98301 17.4216C7.69248 17.602 7.60371 17.997 7.77318 18.3062C7.89424 18.5123 8.096 18.6239 8.29775 18.6239Z" fill="#404040"/>
</svg>
