<svg width="291" height="87" viewBox="0 0 291 87" fill="none" xmlns="http://www.w3.org/2000/svg">
<path d="M289.072 75.9197C289.072 77.0031 288.858 78.0759 288.443 79.0768C288.028 80.0776 287.42 80.9869 286.654 81.7526C285.887 82.5183 284.977 83.1254 283.975 83.5392C282.974 83.9531 281.9 84.1655 280.817 84.1643H10.653C8.46328 84.1666 6.36233 83.2993 4.81217 81.7532C3.26201 80.2071 2.38957 78.1088 2.38672 75.9197V10.171C2.38957 7.98088 3.26167 5.88143 4.81152 4.3336C6.36137 2.78577 8.46229 1.9161 10.653 1.91553H280.814C281.899 1.91553 282.972 2.12908 283.974 2.54398C284.976 2.95888 285.886 3.56701 286.653 4.33362C287.419 5.10024 288.027 6.01033 288.442 7.01192C288.857 8.0135 289.07 9.08696 289.07 10.171L289.072 75.9197Z" fill="white"/>
<path d="M280.817 86.0827H10.6533C7.95588 86.0821 5.36883 85.0118 3.45984 83.1065C1.55084 81.2013 0.475836 78.6167 0.470703 75.92L0.470703 10.1735C0.474694 7.4754 1.54899 4.88908 3.45792 2.98186C5.36686 1.07465 7.95454 0.00227727 10.6533 0L280.815 0C283.513 0.00341357 286.1 1.07615 288.009 2.98312C289.918 4.89009 290.992 7.47575 290.997 10.1735V75.92C291.002 81.5255 286.426 86.0827 280.817 86.0827Z" fill="#A6A6A6"/>
<path d="M289.072 75.9197C289.072 77.0031 288.858 78.0759 288.443 79.0768C288.028 80.0776 287.42 80.9869 286.654 81.7526C285.887 82.5183 284.977 83.1254 283.975 83.5392C282.974 83.9531 281.9 84.1655 280.817 84.1643H10.653C8.46328 84.1666 6.36233 83.2993 4.81217 81.7532C3.26201 80.2071 2.38957 78.1088 2.38672 75.9197V10.171C2.38957 7.98088 3.26167 5.88143 4.81152 4.3336C6.36137 2.78577 8.46229 1.9161 10.653 1.91553H280.814C281.899 1.91553 282.972 2.12908 283.974 2.54398C284.976 2.95888 285.886 3.56701 286.653 4.33362C287.419 5.10024 288.027 6.01033 288.442 7.01192C288.857 8.0135 289.07 9.08696 289.07 10.171L289.072 75.9197Z" fill="black"/>
<path d="M65.3442 42.5879C65.2818 35.6499 71.0266 32.2746 71.2893 32.1174C68.0358 27.3751 62.9929 26.7271 61.2208 26.6755C56.9854 26.2299 52.877 29.2092 50.7195 29.2092C48.5189 29.2092 45.1964 26.7185 41.6156 26.7917C37.0077 26.8628 32.697 29.5299 30.3327 33.6716C25.4535 42.1165 29.0924 54.5266 33.7671 61.3527C36.1055 64.6979 38.838 68.4285 42.4145 68.2972C45.9135 68.1551 47.2205 66.0692 51.443 66.0692C55.6267 66.0692 56.854 68.2972 60.5016 68.2132C64.2568 68.1551 66.6211 64.8551 68.8777 61.4818C71.58 57.6523 72.6652 53.8765 72.7083 53.6828C72.6221 53.6526 65.4174 50.9015 65.3442 42.5879ZM58.4539 22.185C60.3358 19.8322 61.6234 16.6312 61.266 13.3828C58.5422 13.5034 55.1358 15.2664 53.1742 17.5676C51.4387 19.5954 49.8883 22.9191 50.2888 26.0448C53.3486 26.2729 56.4901 24.5013 58.4539 22.185Z" fill="white"/>
<path d="M280.817 0H136.109L192.789 86.0827H280.817C283.515 86.0804 286.102 85.0086 288.011 83.1024C289.92 81.1961 290.995 78.6109 291 75.9135V10.1735C290.995 7.47558 289.921 4.88959 288.012 2.98249C286.103 1.0754 283.516 0.00284564 280.817 0Z" fill="url(#paint0_linear_1781_2648)"/>
<path d="M116.024 53.2948H111.134L108.455 44.8801H99.1444L96.5928 53.2948H91.832L101.059 24.6472H106.756L116.024 53.2948ZM107.648 41.3497L105.225 33.8692C104.969 33.105 104.487 31.3054 103.78 28.4725H103.694C103.41 29.6909 102.956 31.4905 102.333 33.8692L99.9519 41.3497H107.648ZM139.705 42.7123C139.705 46.2255 138.751 49.0024 136.841 51.041C135.131 52.8557 133.006 53.7619 130.472 53.7619C127.735 53.7619 125.767 52.7868 124.572 50.8322V61.6708H119.981V39.4274C119.981 37.2209 119.923 34.9585 119.811 32.6379H123.848L124.105 35.9121H124.191C125.722 33.4451 128.045 32.2117 131.163 32.2117C133.6 32.2117 135.635 33.1739 137.263 35.1005C138.889 37.0315 139.705 39.5673 139.705 42.7123ZM135.028 42.8802C135.028 40.8697 134.576 39.2121 133.667 37.9054C132.674 36.5471 131.342 35.8669 129.671 35.8669C128.538 35.8669 127.509 36.2457 126.589 36.9927C125.668 37.7461 125.065 38.7299 124.783 39.9483C124.657 40.404 124.585 40.8729 124.57 41.3454V44.7918C124.57 46.2922 125.031 47.5601 125.952 48.5977C126.874 49.631 128.071 50.1498 129.544 50.1498C131.273 50.1498 132.619 49.4803 133.581 48.1521C134.546 46.8196 135.028 45.063 135.028 42.8802ZM163.47 42.7123C163.47 46.2255 162.516 49.0024 160.606 51.041C158.894 52.8557 156.771 53.7619 154.235 53.7619C151.498 53.7619 149.53 52.7868 148.335 50.8322V61.6708H143.744V39.4274C143.744 37.2209 143.686 34.9585 143.574 32.6379H147.611L147.868 35.9121H147.954C149.483 33.4451 151.806 32.2117 154.926 32.2117C157.361 32.2117 159.396 33.1739 161.028 35.1005C162.652 37.0315 163.47 39.5673 163.47 42.7123ZM158.791 42.8802C158.791 40.8697 158.337 39.2121 157.428 37.9054C156.435 36.5471 155.107 35.8669 153.436 35.8669C152.303 35.8669 151.274 36.2457 150.35 36.9927C149.429 37.7461 148.828 38.7299 148.546 39.9483C148.406 40.5166 148.331 40.9794 148.331 41.3454V44.7918C148.331 46.2922 148.794 47.5601 149.711 48.5977C150.632 49.6288 151.83 50.1498 153.307 50.1498C155.038 50.1498 156.384 49.4803 157.344 48.1521C158.309 46.8196 158.791 45.063 158.791 42.8802ZM190.041 45.2589C190.041 47.6979 189.188 49.6805 187.494 51.211C185.629 52.8815 183.026 53.7189 179.688 53.7189C176.605 53.7189 174.133 53.1247 172.268 51.9343L173.33 48.1091C175.343 49.3016 177.554 49.8958 179.962 49.8958C181.693 49.8958 183.039 49.504 183.999 48.7269C184.961 47.9476 185.448 46.9057 185.448 45.6055C185.448 44.4409 185.045 43.4658 184.255 42.6714C183.461 41.8793 182.147 41.1409 180.302 40.4628C175.285 38.5921 172.774 35.8561 172.774 32.2569C172.774 29.9062 173.661 27.9817 175.431 26.477C177.201 24.9744 179.548 24.2231 182.468 24.2231C185.075 24.2231 187.248 24.6774 188.973 25.5836L187.821 29.3249C186.197 28.4467 184.365 28.0075 182.315 28.0075C180.696 28.0075 179.425 28.4058 178.517 29.1979C177.752 29.9062 177.365 30.7694 177.365 31.794C177.365 32.9242 177.806 33.8628 178.685 34.599C179.447 35.2771 180.838 36.0154 182.849 36.8076C185.317 37.8021 187.13 38.9602 188.29 40.2906C189.459 41.6209 190.041 43.2806 190.041 45.2589ZM205.258 36.0821H200.198V46.1114C200.198 48.6623 201.089 49.9345 202.876 49.9345C203.697 49.9345 204.377 49.8656 204.915 49.7214L205.042 53.2065C204.138 53.5445 202.947 53.7146 201.472 53.7146C199.659 53.7146 198.242 53.1613 197.22 52.0549C196.201 50.9484 195.689 49.095 195.689 46.4859V36.0735H192.674V32.6293H195.689V28.8471L200.198 27.4866V32.6293H205.258V36.0821ZM228.043 42.7963C228.043 45.9715 227.135 48.5783 225.322 50.6169C223.425 52.7157 220.901 53.7619 217.755 53.7619C214.719 53.7619 212.305 52.7566 210.505 50.7482C208.705 48.7355 207.805 46.1996 207.805 43.1407C207.805 39.9397 208.735 37.3178 210.589 35.2792C212.447 33.2385 214.949 32.2181 218.095 32.2181C221.127 32.2181 223.562 33.2256 225.405 35.2361C227.167 37.1865 228.043 39.7051 228.043 42.7963ZM223.285 42.9018C223.285 41.0096 222.875 39.3865 222.055 38.0281C221.093 36.3878 219.714 35.5677 217.929 35.5677C216.091 35.5677 214.68 36.3878 213.72 38.0281C212.897 39.3865 212.488 41.0376 212.488 42.9879C212.488 44.8822 212.897 46.5096 213.72 47.8637C214.713 49.504 216.097 50.3241 217.891 50.3241C219.646 50.3241 221.021 49.4868 222.016 47.8227C222.86 46.4321 223.285 44.7983 223.285 42.9018ZM242.972 36.6741C242.494 36.5879 242.01 36.5454 241.525 36.5471C239.91 36.5471 238.661 37.1542 237.782 38.3769C237.02 39.4532 236.637 40.8137 236.637 42.4562V53.2948H232.046V39.1432C232.05 36.9748 232.006 34.8065 231.913 32.64H235.911L236.079 36.5923H236.206C236.693 35.234 237.455 34.1383 238.501 33.3181C239.459 32.6015 240.623 32.2134 241.82 32.2117C242.244 32.2117 242.627 32.2418 242.967 32.2956L242.972 36.6741ZM263.503 41.989C263.514 42.6867 263.458 43.3839 263.335 44.0707H249.563C249.614 46.1114 250.282 47.6742 251.561 48.7505C252.721 49.7106 254.222 50.1928 256.065 50.1928C258.104 50.1928 259.965 49.8699 261.638 49.2177L262.357 52.4015C260.402 53.2539 258.094 53.678 255.43 53.678C252.226 53.678 249.711 52.7351 247.881 50.8537C246.055 48.9701 245.14 46.4386 245.14 43.2677C245.14 40.155 245.99 37.561 247.694 35.4923C249.476 33.2837 251.886 32.1794 254.918 32.1794C257.896 32.1794 260.15 33.2837 261.681 35.4923C262.893 37.2424 263.503 39.4123 263.503 41.989ZM259.125 40.7986C259.157 39.436 258.856 38.2628 258.234 37.2704C257.439 35.9917 256.216 35.3545 254.577 35.3545C253.077 35.3545 251.854 35.9767 250.923 37.2252C250.159 38.2176 249.705 39.4102 249.565 40.7943L259.125 40.7986Z" fill="white"/>
<defs>
<linearGradient id="paint0_linear_1781_2648" x1="213.552" y1="86.3112" x2="213.552" y2="-224.145" gradientUnits="userSpaceOnUse">
<stop stop-color="#1A1A1A" stop-opacity="0.1"/>
<stop offset="0.123" stop-color="#212121" stop-opacity="0.151"/>
<stop offset="0.308" stop-color="#353535" stop-opacity="0.227"/>
<stop offset="0.532" stop-color="#575757" stop-opacity="0.318"/>
<stop offset="0.783" stop-color="#858585" stop-opacity="0.421"/>
<stop offset="1" stop-color="#B3B3B3" stop-opacity="0.51"/>
</linearGradient>
</defs>
</svg>
