<svg width="291" height="87" viewBox="0 0 291 87" fill="none" xmlns="http://www.w3.org/2000/svg">
<path d="M279.694 86.0598H10.7575C4.73329 86.0598 0 81.3265 0 75.3023V10.7575C0 4.73329 4.73329 0 10.7575 0H279.694C285.718 0 290.452 4.73329 290.452 10.7575V75.3023C290.452 81.3265 285.718 86.0598 279.694 86.0598Z" fill="black"/>
<path d="M279.694 1.7212C284.643 1.7212 288.73 5.80903 288.73 10.7575V75.3023C288.73 80.2507 284.643 84.3386 279.694 84.3386H10.7575C5.80903 84.3386 1.7212 80.2507 1.7212 75.3023V10.7575C1.7212 5.80903 5.80903 1.7212 10.7575 1.7212H279.694ZM279.694 0H10.7575C4.73329 0 0 4.94844 0 10.7575V75.3023C0 81.3265 4.73329 86.0598 10.7575 86.0598H279.694C285.718 86.0598 290.452 81.3265 290.452 75.3023V10.7575C290.452 4.94844 285.718 0 279.694 0Z" fill="#A6A6A6"/>
<path d="M146.516 34.9216C141.353 34.9216 137.265 38.7943 137.265 44.173C137.265 49.3366 141.353 53.4244 146.516 53.4244C151.68 53.4244 155.768 49.5517 155.768 44.173C155.768 38.5791 151.68 34.9216 146.516 34.9216ZM146.516 49.5517C143.719 49.5517 141.353 47.1851 141.353 43.9579C141.353 40.7306 143.719 38.364 146.516 38.364C149.313 38.364 151.68 40.5155 151.68 43.9579C151.68 47.1851 149.313 49.5517 146.516 49.5517ZM126.507 34.9216C121.344 34.9216 117.256 38.7943 117.256 44.173C117.256 49.3366 121.344 53.4244 126.507 53.4244C131.671 53.4244 135.759 49.5517 135.759 44.173C135.759 38.5791 131.671 34.9216 126.507 34.9216ZM126.507 49.5517C123.71 49.5517 121.344 47.1851 121.344 43.9579C121.344 40.7306 123.71 38.364 126.507 38.364C129.304 38.364 131.671 40.5155 131.671 43.9579C131.671 47.1851 129.304 49.5517 126.507 49.5517ZM102.626 37.7185V41.5912H111.877C111.662 43.7427 110.801 45.4639 109.726 46.5397C108.435 47.8306 106.283 49.3366 102.626 49.3366C96.8166 49.3366 92.5136 44.8185 92.5136 39.0094C92.5136 33.2004 97.0318 28.6823 102.626 28.6823C105.638 28.6823 108.004 29.9732 109.726 31.4792L112.523 28.6823C110.156 26.5308 107.144 24.8096 102.841 24.8096C95.0954 24.8096 88.4258 31.2641 88.4258 39.0094C88.4258 46.7548 95.0954 53.2093 102.841 53.2093C107.144 53.2093 110.156 51.9184 112.738 49.1214C115.319 46.5397 116.18 42.8821 116.18 40.0852C116.18 39.2246 116.18 38.364 115.965 37.7185H102.626ZM200.303 40.7306C199.443 38.5791 197.291 34.9216 192.558 34.9216C187.825 34.9216 183.952 38.5791 183.952 44.173C183.952 49.3366 187.825 53.4244 192.988 53.4244C197.076 53.4244 199.658 50.8426 200.519 49.3366L197.507 47.1851C196.431 48.6911 195.14 49.7669 192.988 49.7669C190.837 49.7669 189.546 48.9063 188.47 46.97L200.734 41.8064L200.303 40.7306ZM187.825 43.7427C187.825 40.3003 190.622 38.364 192.558 38.364C194.064 38.364 195.57 39.2246 196 40.3003L187.825 43.7427ZM177.713 52.5638H181.801V25.6702H177.713V52.5638ZM171.258 36.8579C170.183 35.7822 168.461 34.7064 166.31 34.7064C161.792 34.7064 157.489 38.7943 157.489 43.9579C157.489 49.1214 161.577 52.9941 166.31 52.9941C168.461 52.9941 170.183 51.9184 171.043 50.8426H171.258V52.1335C171.258 55.5759 169.322 57.5123 166.31 57.5123C163.943 57.5123 162.222 55.7911 161.792 54.285L158.349 55.7911C159.425 58.1577 162.007 61.1698 166.525 61.1698C171.258 61.1698 175.131 58.3729 175.131 51.7032V35.3519H171.258V36.8579ZM166.525 49.5517C163.728 49.5517 161.361 47.1851 161.361 43.9579C161.361 40.7306 163.728 38.364 166.525 38.364C169.322 38.364 171.473 40.7306 171.473 43.9579C171.473 47.1851 169.322 49.5517 166.525 49.5517ZM219.021 25.6702H209.34V52.5638H213.428V42.4518H219.021C223.54 42.4518 227.843 39.2246 227.843 34.061C227.843 28.8974 223.54 25.6702 219.021 25.6702ZM219.237 38.5791H213.428V29.3277H219.237C222.249 29.3277 223.97 31.9095 223.97 33.8458C223.755 36.2125 222.034 38.5791 219.237 38.5791ZM243.979 34.7064C240.967 34.7064 237.955 35.9973 236.879 38.7943L240.536 40.3003C241.397 38.7943 242.688 38.364 244.194 38.364C246.345 38.364 248.282 39.6549 248.497 41.8064V42.0215C247.851 41.5912 246.13 40.9458 244.409 40.9458C240.536 40.9458 236.664 43.0973 236.664 46.97C236.664 50.6275 239.891 52.9941 243.333 52.9941C246.13 52.9941 247.421 51.7032 248.497 50.4123H248.712V52.5638H252.585V42.2367C252.154 37.5034 248.497 34.7064 243.979 34.7064ZM243.548 49.5517C242.258 49.5517 240.321 48.9063 240.321 47.1851C240.321 45.0336 242.688 44.3882 244.624 44.3882C246.345 44.3882 247.206 44.8185 248.282 45.2488C247.851 47.8306 245.7 49.5517 243.548 49.5517ZM266.139 35.3519L261.621 46.97H261.406L256.673 35.3519H252.37L259.47 51.7032L255.382 60.7395H259.47L270.442 35.3519H266.139ZM229.994 52.5638H234.082V25.6702H229.994V52.5638Z" fill="white"/>
<path d="M22.3743 16.1362C21.7288 16.7817 21.5137 17.8574 21.5137 19.1483V66.6963C21.5137 67.9872 21.944 69.063 22.5894 69.7084L22.8046 69.9236L49.4831 43.2451V42.8148L22.3743 16.1362Z" fill="url(#paint0_linear_1781_2647)"/>
<path d="M58.0907 52.2813L49.2695 43.4602V42.8148L58.0907 33.9937L58.3058 34.2088L68.8481 40.233C71.8602 41.9542 71.8602 44.7511 68.8481 46.4723L58.0907 52.2813Z" fill="url(#paint1_linear_1781_2647)"/>
<path d="M58.3049 52.0666L49.2687 43.0303L22.375 69.9239C23.4507 70.9997 24.9568 70.9997 26.8931 70.1391L58.3049 52.0666Z" fill="url(#paint2_linear_1781_2647)"/>
<path d="M58.3049 33.9939L26.8931 16.1364C24.9568 15.0607 23.4507 15.2759 22.375 16.3516L49.2687 43.0301L58.3049 33.9939Z" fill="url(#paint3_linear_1781_2647)"/>
<path opacity="0.2" d="M58.0898 51.8511L26.8931 69.4933C25.1719 70.5691 23.6659 70.3539 22.5902 69.4933L22.375 69.7085L22.5902 69.9236C23.6659 70.7842 25.1719 70.9994 26.8931 69.9236L58.0898 51.8511Z" fill="black"/>
<path opacity="0.12" d="M22.3743 69.4936C21.7288 68.8482 21.5137 67.7725 21.5137 66.4816V66.6967C21.5137 67.9876 21.944 69.0634 22.5894 69.7088V69.4936H22.3743ZM68.8465 45.8272L58.0891 51.8514L58.3042 52.0666L68.8465 46.0424C70.3526 45.1818 70.998 44.106 70.998 43.0303C70.998 44.106 70.1374 44.9666 68.8465 45.8272Z" fill="black"/>
<path opacity="0.25" d="M26.8924 16.3512L68.8465 40.2328C70.1374 41.0934 70.998 41.9539 70.998 43.0297C70.998 41.9539 70.3526 40.8782 68.8465 40.0176L26.8924 16.136C23.8803 14.4148 21.5137 15.7057 21.5137 19.1481V19.3633C21.5137 16.136 23.8803 14.63 26.8924 16.3512Z" fill="white"/>
<defs>
<linearGradient id="paint0_linear_1781_2647" x1="46.9013" y1="18.7395" x2="10.7928" y2="54.8459" gradientUnits="userSpaceOnUse">
<stop stop-color="#00A0FF"/>
<stop offset="0.007" stop-color="#00A1FF"/>
<stop offset="0.26" stop-color="#00BEFF"/>
<stop offset="0.512" stop-color="#00D2FF"/>
<stop offset="0.76" stop-color="#00DFFF"/>
<stop offset="1" stop-color="#00E3FF"/>
</linearGradient>
<linearGradient id="paint1_linear_1781_2647" x1="72.794" y1="43.0321" x2="20.7343" y2="43.0321" gradientUnits="userSpaceOnUse">
<stop stop-color="#FFE000"/>
<stop offset="0.409" stop-color="#FFBD00"/>
<stop offset="0.775" stop-color="#FFA500"/>
<stop offset="1" stop-color="#FF9C00"/>
</linearGradient>
<linearGradient id="paint2_linear_1781_2647" x1="53.4146" y1="47.9701" x2="4.4509" y2="96.9338" gradientUnits="userSpaceOnUse">
<stop stop-color="#FF3A44"/>
<stop offset="1" stop-color="#C31162"/>
</linearGradient>
<linearGradient id="paint3_linear_1781_2647" x1="15.6989" y1="0.378909" x2="37.5645" y2="22.2445" gradientUnits="userSpaceOnUse">
<stop stop-color="#32A071"/>
<stop offset="0.069" stop-color="#2DA771"/>
<stop offset="0.476" stop-color="#15CF74"/>
<stop offset="0.801" stop-color="#06E775"/>
<stop offset="1" stop-color="#00F076"/>
</linearGradient>
</defs>
</svg>
