<svg width="41" height="40" viewBox="0 0 41 40" fill="none" xmlns="http://www.w3.org/2000/svg">
<path d="M20.5007 37.9167C10.6173 37.9167 2.58398 29.8833 2.58398 20C2.58398 10.1167 10.6173 2.08333 20.5007 2.08333C30.384 2.08333 38.4173 10.1167 38.4173 20C38.4173 29.8833 30.384 37.9167 20.5007 37.9167ZM20.5007 4.58333C12.0007 4.58333 5.08398 11.5 5.08398 20C5.08398 28.5 12.0007 35.4167 20.5007 35.4167C29.0007 35.4167 35.9173 28.5 35.9173 20C35.9173 11.5 29.0007 4.58333 20.5007 4.58333Z" fill="#E8F4FA"/>
<path d="M18.1324 25.9667C17.7991 25.9667 17.4824 25.8333 17.2491 25.6L12.5324 20.8833C12.0491 20.4 12.0491 19.6 12.5324 19.1167C13.0158 18.6333 13.8158 18.6333 14.2991 19.1167L18.1324 22.95L26.6991 14.3833C27.1824 13.9 27.9824 13.9 28.4658 14.3833C28.9491 14.8667 28.9491 15.6667 28.4658 16.15L19.0158 25.6C18.7824 25.8333 18.4658 25.9667 18.1324 25.9667Z" fill="#BBDEF0"/>
</svg>
